<?xml version="1.0" encoding="UTF-8" standalone="no"?>
<!DOCTYPE svg PUBLIC "-//W3C//DTD SVG 1.1//EN"
 "http://www.w3.org/Graphics/SVG/1.1/DTD/svg11.dtd">
<!-- Generated by graphviz version 12.0.0 (20240704.0754)
 -->
<!-- Title: G Pages: 1 -->
<svg width="273pt" height="188pt"
 viewBox="0.00 0.00 273.24 188.00" xmlns="http://www.w3.org/2000/svg" xmlns:xlink="http://www.w3.org/1999/xlink">
<g id="graph0" class="graph" transform="scale(1 1) rotate(0) translate(4 184)">
<title>G</title>
<polygon fill="white" stroke="none" points="-4,4 -4,-184 269.24,-184 269.24,4 -4,4"/>
<!-- :feature:welcome -->
<g id="node1" class="node">
<title>:feature:welcome</title>
<ellipse fill="none" stroke="black" cx="109.17" cy="-162" rx="75.41" ry="18"/>
<text text-anchor="middle" x="109.17" y="-156.95" font-family="Times,serif" font-size="14.00">:feature:welcome</text>
</g>
<!-- :core:common -->
<g id="node2" class="node">
<title>:core:common</title>
<ellipse fill="none" stroke="black" cx="65.17" cy="-18" rx="65.17" ry="18"/>
<text text-anchor="middle" x="65.17" y="-12.95" font-family="Times,serif" font-size="14.00">:core:common</text>
</g>
<!-- :feature:welcome&#45;&gt;:core:common -->
<g id="edge1" class="edge">
<title>:feature:welcome&#45;&gt;:core:common</title>
<path fill="none" stroke="black" d="M77.5,-145.34C63.33,-136.5 48.05,-123.99 40.17,-108 30.44,-88.26 38.3,-64.14 47.7,-45.99"/>
<polygon fill="black" stroke="black" points="50.69,-47.82 52.55,-37.39 44.59,-44.38 50.69,-47.82"/>
</g>
<!-- :core:domain -->
<g id="node3" class="node">
<title>:core:domain</title>
<ellipse fill="none" stroke="black" cx="109.17" cy="-90" rx="60.05" ry="18"/>
<text text-anchor="middle" x="109.17" y="-84.95" font-family="Times,serif" font-size="14.00">:core:domain</text>
</g>
<!-- :feature:welcome&#45;&gt;:core:domain -->
<g id="edge2" class="edge">
<title>:feature:welcome&#45;&gt;:core:domain</title>
<path fill="none" stroke="red" stroke-width="2" d="M109.17,-143.7C109.17,-136.41 109.17,-127.73 109.17,-119.54"/>
<polygon fill="red" stroke="red" stroke-width="2" points="112.67,-121.13 109.17,-111.13 105.67,-121.13 112.67,-121.13"/>
</g>
<!-- :core:ui -->
<g id="node4" class="node">
<title>:core:ui</title>
<ellipse fill="none" stroke="black" cx="226.17" cy="-90" rx="39.07" ry="18"/>
<text text-anchor="middle" x="226.17" y="-84.95" font-family="Times,serif" font-size="14.00">:core:ui</text>
</g>
<!-- :feature:welcome&#45;&gt;:core:ui -->
<g id="edge3" class="edge">
<title>:feature:welcome&#45;&gt;:core:ui</title>
<path fill="none" stroke="black" d="M136.31,-144.76C153.31,-134.59 175.34,-121.41 193.34,-110.64"/>
<polygon fill="black" stroke="black" points="195.04,-113.7 201.83,-105.57 191.45,-107.7 195.04,-113.7"/>
</g>
<!-- :core:domain&#45;&gt;:core:common -->
<g id="edge4" class="edge">
<title>:core:domain&#45;&gt;:core:common</title>
<path fill="none" stroke="red" stroke-width="2" d="M98.52,-72.05C93.49,-64.06 87.38,-54.33 81.76,-45.4"/>
<polygon fill="red" stroke="red" stroke-width="2" points="85.62,-44.96 77.33,-38.35 79.69,-48.68 85.62,-44.96"/>
</g>
</g>
</svg>
