<?xml version="1.0" encoding="UTF-8" standalone="no"?>
<!DOCTYPE svg PUBLIC "-//W3C//DTD SVG 1.1//EN"
 "http://www.w3.org/Graphics/SVG/1.1/DTD/svg11.dtd">
<!-- Generated by graphviz version 12.0.0 (20240704.0754)
 -->
<!-- Title: G Pages: 1 -->
<svg width="238pt" height="188pt"
 viewBox="0.00 0.00 238.12 188.00" xmlns="http://www.w3.org/2000/svg" xmlns:xlink="http://www.w3.org/1999/xlink">
<g id="graph0" class="graph" transform="scale(1 1) rotate(0) translate(4 184)">
<title>G</title>
<polygon fill="white" stroke="none" points="-4,4 -4,-184 234.12,-184 234.12,4 -4,4"/>
<!-- :feature:list -->
<g id="node1" class="node">
<title>:feature:list</title>
<ellipse fill="none" stroke="black" cx="53.07" cy="-162" rx="52.89" ry="18"/>
<text text-anchor="middle" x="53.07" y="-156.95" font-family="Times,serif" font-size="14.00">:feature:list</text>
</g>
<!-- :core:common -->
<g id="node2" class="node">
<title>:core:common</title>
<ellipse fill="none" stroke="black" cx="78.07" cy="-18" rx="65.17" ry="18"/>
<text text-anchor="middle" x="78.07" y="-12.95" font-family="Times,serif" font-size="14.00">:core:common</text>
</g>
<!-- :feature:list&#45;&gt;:core:common -->
<g id="edge1" class="edge">
<title>:feature:list&#45;&gt;:core:common</title>
<path fill="none" stroke="black" d="M32.86,-145.17C22.41,-135.66 10.7,-122.59 5.07,-108 -0.68,-93.07 -2.19,-86.25 5.07,-72 11.81,-58.79 23.55,-48.1 35.67,-39.87"/>
<polygon fill="black" stroke="black" points="37.47,-42.87 44.1,-34.61 33.76,-36.94 37.47,-42.87"/>
</g>
<!-- :core:ui -->
<g id="node3" class="node">
<title>:core:ui</title>
<ellipse fill="none" stroke="black" cx="53.07" cy="-90" rx="39.07" ry="18"/>
<text text-anchor="middle" x="53.07" y="-84.95" font-family="Times,serif" font-size="14.00">:core:ui</text>
</g>
<!-- :feature:list&#45;&gt;:core:ui -->
<g id="edge2" class="edge">
<title>:feature:list&#45;&gt;:core:ui</title>
<path fill="none" stroke="black" d="M53.07,-143.7C53.07,-136.41 53.07,-127.73 53.07,-119.54"/>
<polygon fill="black" stroke="black" points="56.57,-119.62 53.07,-109.62 49.57,-119.62 56.57,-119.62"/>
</g>
<!-- :core:domain -->
<g id="node4" class="node">
<title>:core:domain</title>
<ellipse fill="none" stroke="black" cx="170.07" cy="-90" rx="60.05" ry="18"/>
<text text-anchor="middle" x="170.07" y="-84.95" font-family="Times,serif" font-size="14.00">:core:domain</text>
</g>
<!-- :feature:list&#45;&gt;:core:domain -->
<g id="edge3" class="edge">
<title>:feature:list&#45;&gt;:core:domain</title>
<path fill="none" stroke="red" stroke-width="2" d="M78.46,-145.81C94.72,-136.09 116.06,-123.32 134.05,-112.55"/>
<polygon fill="red" stroke="red" stroke-width="2" points="134.54,-116.34 141.33,-108.2 130.95,-110.33 134.54,-116.34"/>
</g>
<!-- :core:domain&#45;&gt;:core:common -->
<g id="edge4" class="edge">
<title>:core:domain&#45;&gt;:core:common</title>
<path fill="none" stroke="red" stroke-width="2" d="M148.73,-72.76C136.86,-63.73 121.87,-52.33 108.76,-42.35"/>
<polygon fill="red" stroke="red" stroke-width="2" points="112.1,-40.49 102.02,-37.22 107.86,-46.06 112.1,-40.49"/>
</g>
</g>
</svg>
