<?xml version="1.0" encoding="UTF-8" standalone="no"?>
<!DOCTYPE svg PUBLIC "-//W3C//DTD SVG 1.1//EN"
 "http://www.w3.org/Graphics/SVG/1.1/DTD/svg11.dtd">
<!-- Generated by graphviz version 12.0.0 (20240704.0754)
 -->
<!-- Title: G Pages: 1 -->
<svg width="905pt" height="260pt"
 viewBox="0.00 0.00 905.16 260.00" xmlns="http://www.w3.org/2000/svg" xmlns:xlink="http://www.w3.org/1999/xlink">
<g id="graph0" class="graph" transform="scale(1 1) rotate(0) translate(4 256)">
<title>G</title>
<polygon fill="white" stroke="none" points="-4,4 -4,-256 901.16,-256 901.16,4 -4,4"/>
<!-- :app -->
<g id="node1" class="node">
<title>:app</title>
<ellipse fill="none" stroke="black" cx="458.06" cy="-234" rx="27" ry="18"/>
<text text-anchor="middle" x="458.06" y="-228.95" font-family="Times,serif" font-size="14.00">:app</text>
</g>
<!-- :core:designsystem -->
<g id="node2" class="node">
<title>:core:designsystem</title>
<ellipse fill="none" stroke="black" cx="82.06" cy="-162" rx="82.06" ry="18"/>
<text text-anchor="middle" x="82.06" y="-156.95" font-family="Times,serif" font-size="14.00">:core:designsystem</text>
</g>
<!-- :app&#45;&gt;:core:designsystem -->
<g id="edge1" class="edge">
<title>:app&#45;&gt;:core:designsystem</title>
<path fill="none" stroke="black" d="M432.12,-228.18C382.04,-218.88 268.55,-197.8 173.06,-180 166.78,-178.83 160.27,-177.61 153.73,-176.39"/>
<polygon fill="black" stroke="black" points="154.72,-173.02 144.24,-174.62 153.43,-179.9 154.72,-173.02"/>
</g>
<!-- :feature:welcome -->
<g id="node3" class="node">
<title>:feature:welcome</title>
<ellipse fill="none" stroke="black" cx="257.06" cy="-162" rx="75.41" ry="18"/>
<text text-anchor="middle" x="257.06" y="-156.95" font-family="Times,serif" font-size="14.00">:feature:welcome</text>
</g>
<!-- :app&#45;&gt;:feature:welcome -->
<g id="edge2" class="edge">
<title>:app&#45;&gt;:feature:welcome</title>
<path fill="none" stroke="red" stroke-width="2" d="M434.61,-224.83C404.06,-214.2 349.79,-195.29 309.26,-181.18"/>
<polygon fill="red" stroke="red" stroke-width="2" points="311.94,-178.41 301.35,-178.42 309.64,-185.02 311.94,-178.41"/>
</g>
<!-- :feature:game -->
<g id="node4" class="node">
<title>:feature:game</title>
<ellipse fill="none" stroke="black" cx="413.06" cy="-162" rx="62.1" ry="18"/>
<text text-anchor="middle" x="413.06" y="-156.95" font-family="Times,serif" font-size="14.00">:feature:game</text>
</g>
<!-- :app&#45;&gt;:feature:game -->
<g id="edge3" class="edge">
<title>:app&#45;&gt;:feature:game</title>
<path fill="none" stroke="black" d="M447.85,-217.12C442.59,-208.94 436.05,-198.76 430.05,-189.44"/>
<polygon fill="black" stroke="black" points="433.03,-187.59 424.68,-181.07 427.14,-191.37 433.03,-187.59"/>
</g>
<!-- :feature:list -->
<g id="node5" class="node">
<title>:feature:list</title>
<ellipse fill="none" stroke="black" cx="584.06" cy="-162" rx="52.89" ry="18"/>
<text text-anchor="middle" x="584.06" y="-156.95" font-family="Times,serif" font-size="14.00">:feature:list</text>
</g>
<!-- :app&#45;&gt;:feature:list -->
<g id="edge4" class="edge">
<title>:app&#45;&gt;:feature:list</title>
<path fill="none" stroke="black" d="M478.3,-221.75C496.88,-211.43 524.86,-195.89 547.37,-183.38"/>
<polygon fill="black" stroke="black" points="548.91,-186.53 555.95,-178.62 545.51,-180.41 548.91,-186.53"/>
</g>
<!-- :core:domain -->
<g id="node6" class="node">
<title>:core:domain</title>
<ellipse fill="none" stroke="black" cx="501.06" cy="-90" rx="60.05" ry="18"/>
<text text-anchor="middle" x="501.06" y="-84.95" font-family="Times,serif" font-size="14.00">:core:domain</text>
</g>
<!-- :app&#45;&gt;:core:domain -->
<g id="edge5" class="edge">
<title>:app&#45;&gt;:core:domain</title>
<path fill="none" stroke="black" d="M467.43,-216.77C472.99,-206.52 479.77,-192.83 484.06,-180 490.62,-160.36 494.93,-137.39 497.57,-119.7"/>
<polygon fill="black" stroke="black" points="501.02,-120.3 498.92,-109.91 494.08,-119.33 501.02,-120.3"/>
</g>
<!-- :core:data -->
<g id="node7" class="node">
<title>:core:data</title>
<ellipse fill="none" stroke="black" cx="702.06" cy="-162" rx="47.26" ry="18"/>
<text text-anchor="middle" x="702.06" y="-156.95" font-family="Times,serif" font-size="14.00">:core:data</text>
</g>
<!-- :app&#45;&gt;:core:data -->
<g id="edge6" class="edge">
<title>:app&#45;&gt;:core:data</title>
<path fill="none" stroke="black" d="M482.74,-226.21C518.72,-216.28 587.64,-197.1 646.06,-180 648.98,-179.15 651.98,-178.26 655,-177.36"/>
<polygon fill="black" stroke="black" points="655.92,-180.74 664.49,-174.51 653.91,-174.03 655.92,-180.74"/>
</g>
<!-- :feature:welcome&#45;&gt;:core:domain -->
<g id="edge8" class="edge">
<title>:feature:welcome&#45;&gt;:core:domain</title>
<path fill="none" stroke="red" stroke-width="2" d="M304.11,-147.5C345.17,-135.72 404.72,-118.64 447.58,-106.34"/>
<polygon fill="red" stroke="red" stroke-width="2" points="447.09,-110.12 455.74,-104 445.16,-103.4 447.09,-110.12"/>
</g>
<!-- :core:common -->
<g id="node8" class="node">
<title>:core:common</title>
<ellipse fill="none" stroke="black" cx="457.06" cy="-18" rx="65.17" ry="18"/>
<text text-anchor="middle" x="457.06" y="-12.95" font-family="Times,serif" font-size="14.00">:core:common</text>
</g>
<!-- :feature:welcome&#45;&gt;:core:common -->
<g id="edge7" class="edge">
<title>:feature:welcome&#45;&gt;:core:common</title>
<path fill="none" stroke="black" d="M260.63,-143.8C265.64,-123.82 276.64,-91.18 298.06,-72 322.96,-49.7 357.54,-36.74 388.09,-29.23"/>
<polygon fill="black" stroke="black" points="388.69,-32.68 397.66,-27.04 387.13,-25.86 388.69,-32.68"/>
</g>
<!-- :core:ui -->
<g id="node9" class="node">
<title>:core:ui</title>
<ellipse fill="none" stroke="black" cx="346.06" cy="-90" rx="39.07" ry="18"/>
<text text-anchor="middle" x="346.06" y="-84.95" font-family="Times,serif" font-size="14.00">:core:ui</text>
</g>
<!-- :feature:welcome&#45;&gt;:core:ui -->
<g id="edge9" class="edge">
<title>:feature:welcome&#45;&gt;:core:ui</title>
<path fill="none" stroke="black" d="M278.15,-144.41C290.06,-135.04 305.11,-123.21 318,-113.07"/>
<polygon fill="black" stroke="black" points="320.05,-115.91 325.75,-106.97 315.73,-110.41 320.05,-115.91"/>
</g>
<!-- :feature:game&#45;&gt;:core:domain -->
<g id="edge13" class="edge">
<title>:feature:game&#45;&gt;:core:domain</title>
<path fill="none" stroke="black" d="M433.47,-144.76C444.83,-135.73 459.16,-124.33 471.71,-114.35"/>
<polygon fill="black" stroke="black" points="473.62,-117.3 479.27,-108.33 469.27,-111.82 473.62,-117.3"/>
</g>
<!-- :feature:game&#45;&gt;:core:common -->
<g id="edge11" class="edge">
<title>:feature:game&#45;&gt;:core:common</title>
<path fill="none" stroke="black" d="M415.55,-143.62C418.44,-125.45 423.87,-96.25 432.06,-72 434.92,-63.52 438.77,-54.6 442.59,-46.56"/>
<polygon fill="black" stroke="black" points="445.72,-48.12 447.01,-37.6 439.45,-45.02 445.72,-48.12"/>
</g>
<!-- :feature:game&#45;&gt;:core:ui -->
<g id="edge12" class="edge">
<title>:feature:game&#45;&gt;:core:ui</title>
<path fill="none" stroke="black" d="M397.18,-144.41C388.8,-135.66 378.36,-124.75 369.11,-115.08"/>
<polygon fill="black" stroke="black" points="371.85,-112.89 362.41,-108.08 366.8,-117.73 371.85,-112.89"/>
</g>
<!-- :feature:list&#45;&gt;:core:domain -->
<g id="edge16" class="edge">
<title>:feature:list&#45;&gt;:core:domain</title>
<path fill="none" stroke="black" d="M564.81,-144.76C554.2,-135.82 540.84,-124.55 529.09,-114.64"/>
<polygon fill="black" stroke="black" points="531.55,-112.14 521.65,-108.37 527.04,-117.49 531.55,-112.14"/>
</g>
<!-- :feature:list&#45;&gt;:core:common -->
<g id="edge14" class="edge">
<title>:feature:list&#45;&gt;:core:common</title>
<path fill="none" stroke="black" d="M585.85,-143.78C586.92,-124.4 585.75,-92.89 570.06,-72 556.82,-54.38 536.27,-42.39 516.29,-34.34"/>
<polygon fill="black" stroke="black" points="517.64,-31.11 507.05,-30.9 515.2,-37.67 517.64,-31.11"/>
</g>
<!-- :feature:list&#45;&gt;:core:ui -->
<g id="edge15" class="edge">
<title>:feature:list&#45;&gt;:core:ui</title>
<path fill="none" stroke="black" d="M545.03,-149.52C502.2,-136.92 433.66,-116.77 389.25,-103.7"/>
<polygon fill="black" stroke="black" points="390.27,-100.36 379.69,-100.89 388.3,-107.07 390.27,-100.36"/>
</g>
<!-- :core:domain&#45;&gt;:core:common -->
<g id="edge10" class="edge">
<title>:core:domain&#45;&gt;:core:common</title>
<path fill="none" stroke="red" stroke-width="2" d="M490.41,-72.05C485.38,-64.06 479.27,-54.33 473.65,-45.4"/>
<polygon fill="red" stroke="red" stroke-width="2" points="477.51,-44.96 469.22,-38.35 471.58,-48.68 477.51,-44.96"/>
</g>
<!-- :core:data&#45;&gt;:core:domain -->
<g id="edge19" class="edge">
<title>:core:data&#45;&gt;:core:domain</title>
<path fill="none" stroke="black" d="M667.96,-149.13C635.44,-137.8 586.14,-120.63 549.54,-107.88"/>
<polygon fill="black" stroke="black" points="551.12,-104.73 540.53,-104.74 548.82,-111.34 551.12,-104.73"/>
</g>
<!-- :core:network -->
<g id="node10" class="node">
<title>:core:network</title>
<ellipse fill="none" stroke="black" cx="835.06" cy="-90" rx="62.1" ry="18"/>
<text text-anchor="middle" x="835.06" y="-84.95" font-family="Times,serif" font-size="14.00">:core:network</text>
</g>
<!-- :core:data&#45;&gt;:core:network -->
<g id="edge17" class="edge">
<title>:core:data&#45;&gt;:core:network</title>
<path fill="none" stroke="black" d="M728.97,-146.83C748.15,-136.74 774.24,-123.01 795.74,-111.69"/>
<polygon fill="black" stroke="black" points="797.32,-114.82 804.54,-107.06 794.06,-108.62 797.32,-114.82"/>
</g>
<!-- :core:database -->
<g id="node11" class="node">
<title>:core:database</title>
<ellipse fill="none" stroke="black" cx="691.06" cy="-90" rx="63.63" ry="18"/>
<text text-anchor="middle" x="691.06" y="-84.95" font-family="Times,serif" font-size="14.00">:core:database</text>
</g>
<!-- :core:data&#45;&gt;:core:database -->
<g id="edge18" class="edge">
<title>:core:data&#45;&gt;:core:database</title>
<path fill="none" stroke="black" d="M699.34,-143.7C698.18,-136.32 696.8,-127.52 695.5,-119.25"/>
<polygon fill="black" stroke="black" points="698.99,-118.93 693.98,-109.6 692.08,-120.02 698.99,-118.93"/>
</g>
</g>
</svg>
