<?xml version="1.0" encoding="UTF-8" standalone="no"?>
<!DOCTYPE svg PUBLIC "-//W3C//DTD SVG 1.1//EN"
 "http://www.w3.org/Graphics/SVG/1.1/DTD/svg11.dtd">
<!-- Generated by graphviz version 12.0.0 (20240704.0754)
 -->
<!-- Title: G Pages: 1 -->
<svg width="247pt" height="188pt"
 viewBox="0.00 0.00 247.15 188.00" xmlns="http://www.w3.org/2000/svg" xmlns:xlink="http://www.w3.org/1999/xlink">
<g id="graph0" class="graph" transform="scale(1 1) rotate(0) translate(4 184)">
<title>G</title>
<polygon fill="white" stroke="none" points="-4,4 -4,-184 243.15,-184 243.15,4 -4,4"/>
<!-- :feature:game -->
<g id="node1" class="node">
<title>:feature:game</title>
<ellipse fill="none" stroke="black" cx="62.1" cy="-162" rx="62.1" ry="18"/>
<text text-anchor="middle" x="62.1" y="-156.95" font-family="Times,serif" font-size="14.00">:feature:game</text>
</g>
<!-- :core:common -->
<g id="node2" class="node">
<title>:core:common</title>
<ellipse fill="none" stroke="black" cx="87.1" cy="-18" rx="65.17" ry="18"/>
<text text-anchor="middle" x="87.1" y="-12.95" font-family="Times,serif" font-size="14.00">:core:common</text>
</g>
<!-- :feature:game&#45;&gt;:core:common -->
<g id="edge1" class="edge">
<title>:feature:game&#45;&gt;:core:common</title>
<path fill="none" stroke="black" d="M41.39,-144.71C31.07,-135.25 19.64,-122.36 14.1,-108 8.34,-93.07 6.83,-86.25 14.1,-72 20.83,-58.79 32.57,-48.1 44.69,-39.87"/>
<polygon fill="black" stroke="black" points="46.5,-42.87 53.12,-34.61 42.79,-36.94 46.5,-42.87"/>
</g>
<!-- :core:ui -->
<g id="node3" class="node">
<title>:core:ui</title>
<ellipse fill="none" stroke="black" cx="62.1" cy="-90" rx="39.07" ry="18"/>
<text text-anchor="middle" x="62.1" y="-84.95" font-family="Times,serif" font-size="14.00">:core:ui</text>
</g>
<!-- :feature:game&#45;&gt;:core:ui -->
<g id="edge2" class="edge">
<title>:feature:game&#45;&gt;:core:ui</title>
<path fill="none" stroke="black" d="M62.1,-143.7C62.1,-136.41 62.1,-127.73 62.1,-119.54"/>
<polygon fill="black" stroke="black" points="65.6,-119.62 62.1,-109.62 58.6,-119.62 65.6,-119.62"/>
</g>
<!-- :core:domain -->
<g id="node4" class="node">
<title>:core:domain</title>
<ellipse fill="none" stroke="black" cx="179.1" cy="-90" rx="60.05" ry="18"/>
<text text-anchor="middle" x="179.1" y="-84.95" font-family="Times,serif" font-size="14.00">:core:domain</text>
</g>
<!-- :feature:game&#45;&gt;:core:domain -->
<g id="edge3" class="edge">
<title>:feature:game&#45;&gt;:core:domain</title>
<path fill="none" stroke="red" stroke-width="2" d="M88.36,-145.29C104.61,-135.56 125.7,-122.95 143.46,-112.32"/>
<polygon fill="red" stroke="red" stroke-width="2" points="143.55,-116.35 150.33,-108.21 139.95,-110.34 143.55,-116.35"/>
</g>
<!-- :core:domain&#45;&gt;:core:common -->
<g id="edge4" class="edge">
<title>:core:domain&#45;&gt;:core:common</title>
<path fill="none" stroke="red" stroke-width="2" d="M157.76,-72.76C145.89,-63.73 130.9,-52.33 117.79,-42.35"/>
<polygon fill="red" stroke="red" stroke-width="2" points="121.13,-40.49 111.05,-37.22 116.89,-46.06 121.13,-40.49"/>
</g>
</g>
</svg>
