<?xml version="1.0" encoding="UTF-8" standalone="no"?>
<!DOCTYPE svg PUBLIC "-//W3C//DTD SVG 1.1//EN"
 "http://www.w3.org/Graphics/SVG/1.1/DTD/svg11.dtd">
<!-- Generated by graphviz version 12.0.0 (20240704.0754)
 -->
<!-- Title: G Pages: 1 -->
<svg width="421pt" height="188pt"
 viewBox="0.00 0.00 421.27 188.00" xmlns="http://www.w3.org/2000/svg" xmlns:xlink="http://www.w3.org/1999/xlink">
<g id="graph0" class="graph" transform="scale(1 1) rotate(0) translate(4 184)">
<title>G</title>
<polygon fill="white" stroke="none" points="-4,4 -4,-184 417.27,-184 417.27,4 -4,4"/>
<!-- :core:data -->
<g id="node1" class="node">
<title>:core:data</title>
<ellipse fill="none" stroke="black" cx="206.1" cy="-162" rx="47.26" ry="18"/>
<text text-anchor="middle" x="206.1" y="-156.95" font-family="Times,serif" font-size="14.00">:core:data</text>
</g>
<!-- :core:network -->
<g id="node2" class="node">
<title>:core:network</title>
<ellipse fill="none" stroke="black" cx="62.1" cy="-90" rx="62.1" ry="18"/>
<text text-anchor="middle" x="62.1" y="-84.95" font-family="Times,serif" font-size="14.00">:core:network</text>
</g>
<!-- :core:data&#45;&gt;:core:network -->
<g id="edge1" class="edge">
<title>:core:data&#45;&gt;:core:network</title>
<path fill="none" stroke="black" d="M177.65,-147.17C156.37,-136.83 126.97,-122.53 103.15,-110.95"/>
<polygon fill="black" stroke="black" points="104.87,-107.9 94.34,-106.67 101.81,-114.19 104.87,-107.9"/>
</g>
<!-- :core:database -->
<g id="node3" class="node">
<title>:core:database</title>
<ellipse fill="none" stroke="black" cx="206.1" cy="-90" rx="63.63" ry="18"/>
<text text-anchor="middle" x="206.1" y="-84.95" font-family="Times,serif" font-size="14.00">:core:database</text>
</g>
<!-- :core:data&#45;&gt;:core:database -->
<g id="edge2" class="edge">
<title>:core:data&#45;&gt;:core:database</title>
<path fill="none" stroke="black" d="M206.1,-143.7C206.1,-136.41 206.1,-127.73 206.1,-119.54"/>
<polygon fill="black" stroke="black" points="209.6,-119.62 206.1,-109.62 202.6,-119.62 209.6,-119.62"/>
</g>
<!-- :core:domain -->
<g id="node4" class="node">
<title>:core:domain</title>
<ellipse fill="none" stroke="black" cx="348.1" cy="-90" rx="60.05" ry="18"/>
<text text-anchor="middle" x="348.1" y="-84.95" font-family="Times,serif" font-size="14.00">:core:domain</text>
</g>
<!-- :core:data&#45;&gt;:core:domain -->
<g id="edge3" class="edge">
<title>:core:data&#45;&gt;:core:domain</title>
<path fill="none" stroke="red" stroke-width="2" d="M234.15,-147.17C255.28,-136.76 284.52,-122.34 308.09,-110.72"/>
<polygon fill="red" stroke="red" stroke-width="2" points="308.01,-114.67 315.43,-107.11 304.91,-108.39 308.01,-114.67"/>
</g>
<!-- :core:common -->
<g id="node5" class="node">
<title>:core:common</title>
<ellipse fill="none" stroke="black" cx="348.1" cy="-18" rx="65.17" ry="18"/>
<text text-anchor="middle" x="348.1" y="-12.95" font-family="Times,serif" font-size="14.00">:core:common</text>
</g>
<!-- :core:domain&#45;&gt;:core:common -->
<g id="edge4" class="edge">
<title>:core:domain&#45;&gt;:core:common</title>
<path fill="none" stroke="red" stroke-width="2" d="M348.1,-71.7C348.1,-64.41 348.1,-55.73 348.1,-47.54"/>
<polygon fill="red" stroke="red" stroke-width="2" points="351.6,-49.13 348.1,-39.13 344.6,-49.13 351.6,-49.13"/>
</g>
</g>
</svg>
